<svg version="1.1" xmlns="http://www.w3.org/2000/svg" style="display: block;" viewBox="0 0 2048 2048" width="1000" height="1000" preserveAspectRatio="none">
<path transform="translate(0,0)" fill="rgb(241,240,229)" d="M 0 0 L 2048 0 L 2048 2048 L 0 2048 L 0 0 z"/>
<path transform="translate(0,0)" fill="rgb(196,51,30)" d="M 708.65 902.329 C 722.486 902.992 822.815 903.802 829.18 902.014 C 869.635 904.012 923.777 902.429 964.975 902.41 L 1219.26 902.348 C 1226.87 902.983 1234.36 902.581 1241.97 902.615 C 1274.48 902.763 1307.24 902.068 1339.72 902.559 C 1440.16 902.224 1543.31 903.774 1643.48 902.254 C 1644.23 981.623 1644.72 1066.47 1643.47 1145.74 L 1441.26 1145.6 L 1375.97 1145.56 C 1366.06 1145.54 1349.41 1144.97 1339.87 1145.68 C 1327.14 1145.35 1225.68 1144.03 1219.77 1146.03 C 1208.94 1145.09 1186.98 1145.64 1175.48 1145.63 L 1092.39 1145.58 L 828.289 1145.6 C 818.011 1144.63 800.488 1145.33 789.293 1145.3 C 762.172 1145.14 735.051 1145.22 707.931 1145.54 L 404.54 1145.68 C 404.31 1137.72 404.383 1129.44 404.441 1121.46 C 404.98 1048.44 403.622 975.208 404.561 902.209 C 445.966 902.954 488.44 902.478 529.975 902.481 L 708.65 902.329 z"/>
<path transform="translate(0,0)" fill="rgb(22,21,17)" d="M 911.932 684.283 C 884.018 667.66 854.415 649.119 829.085 628.786 C 761.023 574.149 708.368 500.837 687.211 415.461 C 680.654 389 671.511 343.827 685.483 319.728 C 692.494 307.763 704.012 299.112 717.457 295.715 C 731.88 291.979 747.204 294.315 759.859 302.178 C 771.681 309.74 779.922 321.782 782.688 335.54 C 784.425 344.377 783.925 353.093 784.942 361.709 L 1263.67 361.513 C 1264.49 340.564 1264.57 323.498 1281.79 307.708 C 1292.34 298.151 1306.29 293.243 1320.5 294.091 C 1334.52 294.731 1347.7 301.017 1357.02 311.52 C 1370.84 327.334 1371.28 345.468 1369.43 365.129 C 1359.8 466.894 1305.96 556.412 1228.29 621.277 C 1198.8 645.909 1168.94 665.053 1136.09 684.311 C 1224.28 736.522 1301.67 805.454 1339.72 902.559 C 1307.24 902.068 1274.48 902.763 1241.97 902.615 C 1234.36 902.581 1226.87 902.983 1219.26 902.348 L 964.975 902.41 C 923.777 902.429 869.635 904.012 829.18 902.014 C 822.815 903.802 722.486 902.992 708.65 902.329 C 746.318 802.011 824.606 739.903 911.932 684.283 z"/>
<path transform="translate(0,0)" fill="rgb(241,240,229)" d="M 863.642 857.081 L 1184.69 857.105 C 1197.76 871.801 1209.45 885.015 1219.26 902.348 L 964.975 902.41 C 923.777 902.429 869.635 904.012 829.18 902.014 C 839.462 884.367 850.089 872.008 863.642 857.081 z"/>
<path transform="translate(0,0)" fill="rgb(241,240,229)" d="M 802.784 423.916 L 1245.71 423.974 C 1237.67 443.516 1231.03 455.437 1219.79 472.721 C 1213.35 481.732 1207.77 489.183 1200.82 497.834 L 847.681 497.846 C 828.701 475.876 813.526 450.889 802.784 423.916 z"/>
<path transform="translate(0,0)" fill="rgb(241,240,229)" d="M 921.663 560.496 L 1046.53 560.575 C 1073.43 560.577 1102.33 561.26 1128.94 560.382 C 1117.85 568.782 1103.42 577.632 1091.59 584.892 C 1068.67 598.502 1047.81 610.414 1024.03 622.525 C 1009.34 614.83 925.999 569.568 921.663 560.496 z"/>
<path transform="translate(0,0)" fill="rgb(241,240,229)" d="M 1024.49 744.308 C 1053.85 760.352 1080.56 775.635 1108.03 794.906 L 1024.46 794.789 C 996.557 794.658 968.648 794.73 940.741 795.005 C 957.985 780.387 1004.39 754.91 1024.49 744.308 z"/>
<path transform="translate(0,0)" fill="rgb(22,21,17)" d="M 1219.77 1146.03 C 1225.68 1144.03 1327.14 1145.35 1339.87 1145.68 C 1302.53 1243.64 1223.19 1310.25 1136.35 1363.7 C 1158.08 1376.08 1179.13 1389.62 1199.4 1404.27 C 1291.53 1472.27 1350.64 1561.8 1368.34 1675.96 C 1371.54 1696.64 1373.44 1716.33 1359.81 1734.08 C 1351.19 1745.25 1338.5 1752.54 1324.52 1754.38 C 1309.78 1756.26 1294.91 1752.01 1283.38 1742.63 C 1264.8 1727.32 1264.54 1708.3 1262.36 1686.65 L 785.745 1686.65 C 782.982 1710.61 783.402 1730.99 760.199 1746.03 C 748.192 1753.76 733.619 1756.43 719.652 1753.47 C 664.321 1741.36 676.777 1682.33 686.633 1642.31 C 707.806 1554.74 757.502 1476.7 827.897 1420.48 C 855.401 1398.22 881.549 1381.79 911.661 1363.62 C 840.978 1322.05 770.612 1262.71 729.558 1190.95 C 720.6 1175.29 714.866 1161.98 707.931 1145.54 C 735.051 1145.22 762.172 1145.14 789.293 1145.3 C 800.488 1145.33 818.011 1144.63 828.289 1145.6 L 1092.39 1145.58 L 1175.48 1145.63 C 1186.98 1145.64 1208.94 1145.09 1219.77 1146.03 z"/>
<path transform="translate(0,0)" fill="rgb(241,240,229)" d="M 828.289 1145.6 L 1092.39 1145.58 L 1175.48 1145.63 C 1186.98 1145.64 1208.94 1145.09 1219.77 1146.03 C 1209.24 1162.83 1198.1 1176.32 1184.85 1190.99 C 1078.5 1192.13 970.089 1191.03 863.569 1191.03 C 848.269 1174.51 840.096 1164.21 828.289 1145.6 z"/>
<path transform="translate(0,0)" fill="rgb(241,240,229)" d="M 849.105 1550.04 L 1199.08 1550.09 C 1217.92 1572.18 1233.03 1597.19 1243.8 1624.15 L 1198.62 1624.15 L 804.256 1624.05 C 816.127 1596.07 829.574 1573.38 849.105 1550.04 z"/>
<path transform="translate(0,0)" fill="rgb(241,240,229)" d="M 1022.83 1425.92 C 1031.53 1424.71 1114.57 1477.52 1129.53 1487.42 C 1096.48 1486.73 1061.42 1487.31 1028.25 1487.26 L 918.981 1487.4 C 941.021 1469.73 996.512 1439.77 1022.83 1425.92 z"/>
<path transform="translate(0,0)" fill="rgb(241,240,229)" d="M 940.404 1253.24 C 995.966 1253.84 1052.82 1253.28 1108.47 1253.22 C 1098.06 1260.97 1087.52 1267.38 1076.52 1274.24 C 1058.91 1284.88 1042.19 1294.23 1024.21 1304.21 C 1002.95 1292.76 958.95 1268.7 940.404 1253.24 z"/>
</svg>